<?xml version="1.0" encoding="UTF-8"?>
<!-- Generated by scripts/generate-scenario-maps.mjs from checked-in GeoJSON sources. -->
<svg xmlns="http://www.w3.org/2000/svg" viewBox="0 0 1000 800" aria-labelledby="title desc" role="img">
  <title id="title">Egypt 1919 scenario map</title>
  <desc id="desc">Scenario board geography generated from checked-in Egypt scenario SVG geometry for the 1919 uprising board.</desc>
  <rect width="1000" height="800" fill="#d7ecf5" />
  <g id="country-shell">
    <path id="country-base" d="M 619.1 83.91 L 622.55 126.96 L 630.59 138.96 L 632.52 145.03 L 634.43 151.91 L 634.27 167.23 L 636.19 172.76 L 679.43 176.6 L 695.76 179.74 L 736.81 198.22 L 745.93 201.23 L 760.71 202.77 L 773.1 200.89 L 773.38 193.96 L 770.94 183.89 L 755.53 138.29 L 750.76 134.8 L 751.5 128.2 L 748.94 125.42 L 749.17 120 L 747.66 113.96 L 741.43 100.12 L 729.06 63.71 L 713.67 73.53 L 692.92 79.77 L 681.22 79.57 L 673.73 74.79 L 665.71 72.24 L 678.93 78.06 L 679.9 79.06 L 679.08 78.84 L 678.18 82.87 L 672.12 80.33 L 656.79 85.79 L 657.32 82.86 L 655.57 80.64 L 653.74 80.47 L 655.17 80.15 L 653.95 79.22 L 655.12 77.9 L 657.47 79.6 L 653.59 74.87 L 649.16 77.21 L 646.7 80.83 L 644.38 81.23 L 648.94 82.18 L 649.37 80.3 L 651.63 79.61 L 651.06 81.94 L 648.2 82.84 L 649.17 84.04 L 647.92 85.19 L 644.68 84.57 L 646.3 82.35 L 643.54 81.41 L 642.91 82.5 L 638.64 81.98 L 633.25 85.6 L 630.25 85.58 L 628.91 86.81 L 627.31 86.54 L 628.38 86.15 L 627.96 85.08 L 625.33 85.36 L 642.43 78.49 L 642.19 77.34 L 631.2 83.33 L 621.02 84.57 L 619.1 83.91 Z M 643.14 78.08 L 654.86 71.4 L 665.56 72 L 654.2 71.26 L 642.8 78.23 L 643.14 78.08 Z M 749.46 322.58 L 748.07 320.66 L 751.41 320.16 L 748.99 318.99 L 747.53 320.02 L 748.09 324.26 L 751.56 326.79 L 756.1 326.01 L 753.89 324.1 L 753.88 322.43 L 750.14 322.8 L 749.46 322.58 Z M 761.03 325.88 L 761.78 327.42 L 763.98 326.02 L 762.01 323.31 L 758.55 324.1 L 758.28 325.98 L 759.61 324.39 L 761.15 325.54 L 761.03 325.88 Z M 636.19 172.76 L 622.74 181.74 L 627.05 187.79 L 625.87 197.78 L 628.01 198.91 L 629.05 201.56 L 628.6 204.85 L 629.72 206.21 L 628.45 209.47 L 629.43 209.47 L 629.61 207.11 L 630.23 209.58 L 635.24 212.85 L 636.02 219.66 L 638.6 221.6 L 639.65 225.88 L 644.12 228.25 L 652.6 237.28 L 653.94 240.19 L 659.53 243.8 L 659.13 255.42 L 662.87 261.53 L 660.67 269.01 L 663.58 277.83 L 664.42 278.26 L 663.1 276.01 L 664.65 275.82 L 665.54 278.22 L 664.74 278.8 L 671.81 285.48 L 674.5 290.48 L 685.4 297.78 L 687.13 301.53 L 689.14 302.79 L 689.49 306.37 L 692.06 307.69 L 694.88 314.71 L 698.31 316.4 L 698.55 318.76 L 706.33 325.34 L 708.61 324.89 L 711.21 328.69 L 713.44 328.9 L 720.56 336.25 L 726.93 336.44 L 731.22 340.99 L 731.53 337.84 L 729.37 338.1 L 728.16 336.1 L 731.67 336.12 L 732.68 331.18 L 734.13 330.53 L 735.61 331.58 L 736.39 326.77 L 738.95 326.46 L 743.37 321.1 L 744.04 318.02 L 743.04 313.78 L 744.52 306.97 L 741.91 302.35 L 741.85 295.74 L 743.99 292.77 L 746.1 285.05 L 748.71 283.75 L 749.18 278 L 756.41 264.43 L 756 256.37 L 757.84 254.16 L 757.24 247.65 L 760.43 245.03 L 758.88 240.35 L 760.7 231.57 L 763.88 227.78 L 764.15 219.83 L 766.55 217.71 L 771.96 207.56 L 774.89 206.14 L 773.1 200.89 L 760.71 202.77 L 745.93 201.23 L 736.81 198.22 L 695.76 179.74 L 679.43 176.6 L 658.02 174.44 L 636.19 172.76 Z M 519.94 764 L 534.47 764 L 537.82 754.49 L 544.84 747.73 L 547.28 750.6 L 542.43 757.81 L 540.09 764 L 675.06 764 L 678.82 519.86 L 626.28 519.8 L 623.75 529.2 L 627.07 531.65 L 625.43 536.6 L 519.94 764 Z M 713.74 416.74 L 714.03 417.87 L 714.11 413.4 L 712.39 412.24 L 711.78 413.3 L 713.64 416.43 L 713.74 416.74 Z M 791.95 569.59 L 793.1 570.36 L 791.41 568.57 L 791.8 569.59 L 791.95 569.59 Z M 705.71 379.29 L 705.68 380.17 L 706.03 378.9 L 705.71 379.29 Z M 715.71 357.82 L 711.81 355.2 L 708.7 356.19 L 713.02 358.49 L 716.01 361.97 L 717.01 361.47 L 715.98 358.25 L 715.71 357.82 Z M 712.63 379.75 L 712.51 381.57 L 713.22 380.54 L 712.63 379.75 Z M 711.05 381.97 L 711.87 381.73 L 708.18 375.48 L 707.34 377.33 L 710.91 381.9 L 711.05 381.97 Z M 890.84 745.37 L 893.03 745.64 L 891.78 743.36 L 890.89 745.08 L 890.84 745.37 Z M 831.02 698.47 L 830.67 697.32 L 829.52 697.99 L 830.86 698.43 L 831.02 698.47 Z M 861.08 647.96 L 862.81 647.16 L 860.95 645.8 L 860.8 647.87 L 861.08 647.96 Z M 831.85 700.68 L 832.73 699.36 L 831.35 697.75 L 831.78 700.65 L 831.85 700.68 Z M 675.06 764 L 907.42 764 L 908.36 760.21 L 901.94 754.98 L 900.09 751.6 L 896.76 752.19 L 887.01 742.88 L 878.28 738.38 L 876.42 732.73 L 869.13 728.27 L 865.72 719.56 L 860.46 715.92 L 851.19 714.99 L 846.28 713.05 L 844.63 714.18 L 844.1 712.45 L 842.96 713.82 L 843.51 712.62 L 841.45 712.28 L 838.26 708.95 L 834.42 702.67 L 834.47 704.09 L 832.87 703.18 L 833.24 701.41 L 834.14 702.38 L 833.42 700.27 L 831.98 700.69 L 832.23 702.61 L 827.23 695.23 L 826.07 695.46 L 825.45 686.59 L 819.65 676 L 818.34 664.39 L 813.63 654.73 L 815.37 648.63 L 814.13 648.71 L 815.05 648.01 L 814.06 644.32 L 815.56 645.29 L 815.73 641.73 L 813.88 636.35 L 815.06 635.63 L 815.51 636.53 L 815.74 634.96 L 813.11 634.37 L 814.12 628.04 L 813.12 623.47 L 815.83 620.03 L 818.82 621.45 L 815.58 623.81 L 819 621.6 L 820.83 623.43 L 827.71 625.05 L 831.8 622.91 L 834.07 626.14 L 834.56 625.11 L 829.7 619.04 L 821.67 617.24 L 820.82 612.62 L 818.64 610.44 L 815.11 608.17 L 814.28 608.39 L 815.73 610.09 L 814.61 610.46 L 805.32 595.07 L 802.76 591.91 L 797.2 589.02 L 794.2 583.72 L 790.62 580.71 L 791.16 577.65 L 792.53 576.86 L 790.08 573.53 L 788.93 573.58 L 788.72 569.55 L 787.19 568.54 L 786.16 562.93 L 780.96 557.27 L 780.52 552.53 L 777.14 547.74 L 777.71 545.01 L 764.78 522.52 L 759.72 508.79 L 756.47 505.43 L 757.42 505.07 L 757.06 502.19 L 753.75 498.74 L 750.67 489.41 L 742.07 480.45 L 740.96 475.15 L 737.39 471.48 L 733.6 461.85 L 730.81 458.9 L 726.7 446.63 L 721.6 439.72 L 715.61 424.9 L 710.08 420.53 L 710.46 415.15 L 711.76 414.37 L 710.17 412.04 L 710.61 408.48 L 712.14 405.96 L 714.27 407.57 L 714.14 403.1 L 711.88 403.3 L 707.62 396.13 L 708.42 395.14 L 706.6 392.81 L 708.12 392.26 L 707.63 391.07 L 703.02 387.86 L 702.81 382.25 L 704.48 380.51 L 704.27 376.95 L 693.99 370.46 L 692.83 364.2 L 689.97 361.32 L 688.98 358.18 L 684.88 356.01 L 684.85 351.27 L 680.54 347.19 L 682.64 344.39 L 685.05 346.03 L 684.82 344.49 L 687.2 346.56 L 683.43 342.4 L 684.61 338.17 L 682.21 339.02 L 678.84 334.58 L 680.05 332.46 L 684.72 333.99 L 685.7 336.14 L 686.82 335.68 L 686.55 331.65 L 683.01 325.42 L 679.43 320.79 L 675.24 317.6 L 672.55 317.66 L 670.16 316 L 669.96 313.7 L 666.08 309.61 L 663.66 309.06 L 663.64 307.14 L 655.81 297.93 L 654.7 292.96 L 651.21 290.16 L 648.82 284.81 L 642.66 278.08 L 638.4 276.44 L 634.49 261.22 L 630.5 258.72 L 626.46 253.74 L 624.85 248.86 L 622.07 245.41 L 622.15 239.66 L 625.01 236.22 L 624.19 234.12 L 619.04 233.31 L 615.03 234.15 L 611.15 236.54 L 588.44 243.92 L 578.44 244.63 L 574.78 257.9 L 570.84 264.49 L 571.85 272.63 L 566.17 279.22 L 567.27 287.55 L 574.14 299.63 L 598.2 295.69 L 607.63 300.36 L 618.89 314.18 L 626.94 335.5 L 630.87 353.62 L 625.11 371.65 L 633.53 398.1 L 633.89 410.63 L 637.55 410.82 L 643.5 414.75 L 661.99 433.42 L 670.41 429.85 L 685.32 463.99 L 685.14 467.65 L 675.99 479.82 L 671.05 491.26 L 671.69 496.01 L 678.73 503.11 L 678.82 519.86 L 675.06 764 Z M 692.45 347.94 L 692.62 347.97 L 692.88 347.65 L 692.72 347.36 L 692.31 346.93 L 691.86 346.91 L 692.45 347.94 Z M 697.64 351.74 L 699.56 352.56 L 698.6 353.33 L 700.14 354.55 L 699.39 353.35 L 701.17 351.89 L 699.48 350.88 L 698.8 348.34 L 697.41 351.75 L 697.64 351.74 Z M 689.21 345.18 L 690.2 346.45 L 689.29 344.34 L 689.21 345.18 Z M 700.45 344.69 L 701.52 344.16 L 700.51 344.28 L 700.45 344.69 Z M 693.04 341.63 L 692.21 341.71 L 693.74 344.09 L 693.25 341.63 L 693.04 341.63 Z M 688.34 337.72 L 686.96 336.46 L 687.49 338.42 L 688.06 337.78 L 688.34 337.72 Z M 701.57 348.97 L 702.02 346.78 L 700.6 345.5 L 699.91 346.57 L 701.36 348.98 L 701.57 348.97 Z M 694.14 344.32 L 694.61 346.56 L 696.91 344.69 L 696.78 342.33 L 694.56 344.32 L 694.14 344.32 Z M 418.71 89.04 L 406.22 96.7 L 393.98 101.62 L 388.62 102.96 L 380.51 102.86 L 373.06 98.8 L 368.47 95.19 L 368 92.75 L 363.79 91.68 L 363.43 90.28 L 353.05 87.81 L 349.67 84.93 L 346.72 85.03 L 341.34 82.17 L 333.51 83.78 L 325.89 83.33 L 322.86 81.85 L 307.61 81.48 L 305.35 79.81 L 302.89 69.8 L 300.21 72.24 L 290.6 75.19 L 288.4 74.97 L 287.98 73.71 L 275.2 72.18 L 271.17 68.53 L 268.11 59.85 L 257.51 60.94 L 257.54 59.96 L 260.45 60.13 L 250.53 59.06 L 249.58 57.19 L 246.07 56.8 L 244.2 54.4 L 234.35 54.42 L 228.7 51.15 L 217.64 50.74 L 215.66 49.41 L 211.52 50.25 L 172.07 39.79 L 144.6 48.42 L 130.66 49.41 L 122.58 46.75 L 122.01 45.19 L 123.35 44.34 L 121.38 40.75 L 121.11 36 L 120.28 36.48 L 116.38 42.06 L 116.4 45.84 L 107.23 52.33 L 106.88 55.93 L 102.47 59.68 L 103.53 71.05 L 102.54 76.82 L 105.37 87.88 L 112.58 105.65 L 106.34 127.57 L 101.17 136.38 L 96.61 140.95 L 91.64 153.77 L 100.22 176.37 L 98.73 183.49 L 103.72 192.79 L 103.08 204.93 L 111.14 224.73 L 111.31 339.11 L 266.13 339.94 L 297.96 271.7 L 361.2 257.63 L 417.56 201.11 L 467.2 172.99 L 420.68 146.48 L 419.03 89.78 L 418.71 89.04 Z M 378.02 101.34 L 380.72 102.52 L 381.18 101.64 L 378.49 101.55 L 378.02 101.34 Z M 623.75 529.2 L 616.16 523.46 L 612.88 514.5 L 612.2 507.6 L 609.33 501.17 L 609.6 495.36 L 625.74 482.2 L 629.97 466.07 L 629.84 461.77 L 624.98 457.39 L 599.76 467.78 L 592.38 467.78 L 587.32 465.58 L 575.68 454.57 L 548.1 419.49 L 535.17 406.7 L 524.43 386.26 L 518.65 379.17 L 506.51 372.95 L 497.04 363 L 490.61 350.13 L 490.19 340.55 L 111.31 339.11 L 111.29 764 L 519.94 764 L 627.07 531.65 L 623.75 529.2 Z M 420.71 138.95 L 427.95 130.77 L 445.72 121.87 L 442.01 112.59 L 443.8 110.33 L 437.56 99.27 L 440.6 97.19 L 447.39 80.56 L 452.59 73.66 L 452.22 66.96 L 450.86 64.16 L 452.07 63.03 L 439.67 73.23 L 438.05 72.52 L 436.05 76.11 L 437.6 73.45 L 438.3 74.63 L 435.04 77.87 L 432.54 78.54 L 431.96 77.69 L 433.33 76.88 L 431.97 77.5 L 418.71 89.04 L 420.35 130.62 L 420.71 138.95 Z M 601.26 120.95 L 601.09 123.73 L 603.04 126.86 L 602.48 120.97 L 601.26 120.95 Z M 603.51 129.3 L 604.15 132.09 L 603.88 129.26 L 603.51 129.3 Z M 603.09 126.99 L 603.81 129.2 L 603.46 126.9 L 603.09 126.99 Z M 593.15 99.02 L 592.88 119.1 L 589.17 125.14 L 585.97 125.96 L 583.01 124.45 L 563.56 124.09 L 563.34 125.8 L 566.57 129.12 L 567.66 136.53 L 571.75 149.05 L 600.81 147.9 L 607.37 151.13 L 611.07 150.84 L 615.24 147.68 L 611.25 146.39 L 611.95 148.13 L 609.28 148.38 L 607.62 145.28 L 603.53 144.59 L 600.6 140.26 L 601.21 135.66 L 604.28 134.87 L 602.73 126.75 L 598.41 121.37 L 600.91 121.2 L 603.31 112.25 L 601.42 105.71 L 601.43 99.08 L 599.53 99.33 L 593.15 99.02 Z M 620.18 93.2 L 616.47 91.84 L 606.15 98.46 L 601.66 99.05 L 604.17 112.71 L 602.7 121.42 L 604.86 134.74 L 609.86 139.62 L 611.34 145.28 L 616.47 146.86 L 632.76 146.92 L 630.59 138.96 L 622.55 126.96 L 620.78 100.37 L 620.18 93.2 Z M 603.26 113.75 L 601.34 120.88 L 602.48 120.81 L 603.85 113.91 L 603.26 113.75 Z M 603.48 111.02 L 603.76 113.77 L 603.85 111.9 L 603.48 111.02 Z M 601.69 104.61 L 601.64 105.76 L 602.11 108.47 L 602.43 109.33 L 603.1 110.4 L 601.69 104.61 Z M 624.19 234.12 L 618.86 215.14 L 606.01 203.49 L 603.35 198.36 L 605.3 194.34 L 603.77 193.44 L 605.19 193.84 L 604.68 191.38 L 614.53 177.63 L 612.49 177.5 L 611.17 175.24 L 612.31 171.74 L 615.55 170.32 L 616.56 171.44 L 615.75 170.39 L 617.8 169.98 L 618.06 171.97 L 619.5 169.68 L 617.9 151.42 L 616.26 151.6 L 615.24 147.68 L 611.07 150.84 L 607.37 151.13 L 600.81 147.9 L 571.75 149.05 L 574.27 167.49 L 574.09 186.28 L 569.95 243.01 L 578.44 244.63 L 588.44 243.92 L 611.15 236.54 L 615.03 234.15 L 619.04 233.31 L 622.54 234.28 L 624.19 234.12 Z M 632.76 146.92 L 616.47 146.86 L 618.82 150.49 L 619.78 168.32 L 619.42 171.03 L 617.85 172.5 L 622.83 176.95 L 621.18 180.6 L 622.74 181.74 L 636.19 172.76 L 634.27 167.23 L 634.43 151.91 L 632.76 146.92 Z M 497.37 90.07 L 496.42 91.51 L 498.88 94.42 L 497 98.1 L 499.59 100.24 L 497.45 102.92 L 500.77 103.14 L 496.89 107.18 L 499.69 108.38 L 497.42 110.85 L 500.19 114.13 L 509.48 112.44 L 512.7 114.98 L 517.04 115.17 L 518.21 117.47 L 522.16 117.71 L 526.84 121.47 L 530.68 121.76 L 531.87 115.15 L 530.37 109.78 L 528.49 108.15 L 529.23 105.94 L 527.88 102.12 L 530.29 101.08 L 528.95 97.01 L 530.91 94.77 L 529.37 92.71 L 533.55 89.48 L 527.18 89.86 L 528.89 82.88 L 527.62 81.42 L 524.69 80.93 L 522.79 83.03 L 516.35 81.91 L 517.09 84.98 L 514.94 90.1 L 508.35 90.1 L 507.09 91.91 L 504.45 91.08 L 499.72 91.96 L 498.11 90.1 L 497.37 90.07 Z M 436.29 236.74 L 451.26 241.85 L 466.4 241.85 L 466.58 246.78 L 476.07 245.86 L 504.72 234.55 L 505.08 227.62 L 513.11 226.7 L 513.48 221.59 L 520.96 213.75 L 521.56 210.36 L 514.94 188.75 L 493.04 190.03 L 484.1 195.68 L 436.29 236.74 Z M 578.44 244.63 L 567.92 242.62 L 527.58 229.51 L 528.84 224.48 L 526.96 220.3 L 529.11 215.63 L 527.55 210.33 L 521.56 210.36 L 520.96 213.75 L 513.48 221.59 L 513.11 226.7 L 505.08 227.62 L 504.72 234.55 L 476.07 245.86 L 466.58 246.78 L 466.4 241.85 L 451.26 241.85 L 436.29 236.74 L 431.58 258.93 L 435.51 260.48 L 500.74 261.76 L 505.71 264.72 L 515.84 265.37 L 528.2 286.94 L 533 290.4 L 542.68 295.43 L 557.13 298.91 L 574.14 299.63 L 567.27 287.55 L 566.17 279.22 L 571.85 272.63 L 570.84 264.49 L 574.78 257.9 L 577.8 248.47 L 578.44 244.63 Z M 574.14 299.63 L 557.13 298.91 L 542.68 295.43 L 533 290.4 L 528.2 286.94 L 515.84 265.37 L 505.71 264.72 L 500.74 261.76 L 435.51 260.48 L 431.58 258.93 L 430.22 270.7 L 418.54 293.87 L 395.36 310.11 L 367.45 321.61 L 354.21 339.76 L 490.19 340.55 L 491.33 347.18 L 494.06 348.63 L 501.18 349 L 505.56 345.35 L 555.92 343.16 L 588.22 331.48 L 608.47 326.92 L 624.19 327.45 L 618.89 314.18 L 607.63 300.36 L 598.2 295.69 L 575.87 299.72 L 574.14 299.63 Z M 624.19 327.45 L 608.47 326.92 L 588.22 331.48 L 555.92 343.16 L 505.56 345.35 L 501.18 349 L 494.06 348.63 L 491.33 347.18 L 490.19 340.55 L 490.61 350.13 L 497.04 363 L 506.51 372.95 L 518.65 379.17 L 524.43 386.26 L 533.22 403.66 L 541.32 397.9 L 573.62 391.33 L 591.14 396.81 L 621.61 367.43 L 625.47 368.08 L 630.23 357.83 L 630.87 353.62 L 626.94 335.5 L 624.19 327.45 Z M 625.47 368.08 L 621.61 367.43 L 591.14 396.81 L 573.62 391.33 L 541.32 397.9 L 533.22 403.66 L 543.81 416.31 L 548.1 419.49 L 575.68 454.57 L 590.28 448.94 L 599.4 456.19 L 633.89 410.63 L 633.53 398.1 L 625.11 371.65 L 625.47 368.08 Z M 678.82 519.86 L 678.73 503.11 L 671.69 496.01 L 671.05 491.26 L 675.99 479.82 L 685.14 467.65 L 685.32 463.99 L 670.41 429.85 L 661.99 433.42 L 643.5 414.75 L 637.55 410.82 L 633.89 410.63 L 599.4 456.19 L 590.28 448.94 L 575.68 454.57 L 587.32 465.58 L 592.38 467.78 L 599.76 467.78 L 624.98 457.39 L 629.84 461.77 L 629.97 466.07 L 627.85 471.68 L 644.65 471.65 L 645.24 484.91 L 635.1 500.99 L 617.9 512.87 L 612.88 514.5 L 616.16 523.46 L 623.75 529.2 L 626.28 519.8 L 678.82 519.86 Z M 612.88 514.5 L 617.9 512.87 L 635.1 500.99 L 645.24 484.91 L 644.65 471.65 L 627.85 471.68 L 625.74 482.2 L 609.6 495.36 L 609.33 501.17 L 612.2 507.6 L 612.88 514.5 Z M 266.13 339.94 L 354.21 339.76 L 367.45 321.61 L 395.36 310.11 L 418.54 293.87 L 430.22 270.7 L 436.29 236.74 L 484.1 195.68 L 493.04 190.03 L 514.94 188.75 L 521.56 210.36 L 527.55 210.33 L 529.11 215.63 L 526.96 220.3 L 528.84 224.48 L 527.58 229.51 L 569.95 243.01 L 574.09 186.28 L 562.4 184.66 L 544.47 185.89 L 532.57 184.92 L 532.39 173.63 L 528.63 168.09 L 528.85 159.63 L 527.52 157.25 L 517.96 149.86 L 514.29 151.56 L 512.73 150.81 L 510.35 144.91 L 507.63 144.74 L 507.72 140.92 L 504.94 140.47 L 502.36 141.55 L 499.06 145.66 L 467.2 172.99 L 417.56 201.11 L 361.2 257.63 L 297.96 271.7 L 266.13 339.94 Z M 500.19 114.13 L 499.1 116.68 L 500.75 121.02 L 502.41 121.48 L 500.84 123.98 L 503.41 124.92 L 501.97 127.86 L 502.52 129.95 L 496.4 131.11 L 492.6 136.27 L 487.79 132.54 L 490.54 130.17 L 490 128.88 L 483.24 128.72 L 481.16 130.76 L 478.91 140.53 L 495.2 148.97 L 502.36 141.55 L 507.72 140.92 L 507.63 144.74 L 510.35 144.91 L 512.73 150.81 L 514.29 151.56 L 517.96 149.86 L 522.9 153.59 L 520.38 148.33 L 521.16 146.19 L 519.32 144.97 L 520.54 141.8 L 517.04 138.2 L 519.7 138.6 L 520.86 136.19 L 519.86 134.13 L 522.15 135.85 L 521.79 132.81 L 525.02 131.54 L 525.59 129.05 L 528.33 126.98 L 528.38 124.32 L 530.52 124.78 L 529.88 122.24 L 526.84 121.47 L 522.16 117.71 L 518.21 117.47 L 517.04 115.17 L 512.7 114.98 L 509.48 112.44 L 506.01 112.3 L 504.31 113.91 L 500.19 114.13 Z M 467.2 172.99 L 495.2 148.97 L 478.91 140.53 L 481.16 130.76 L 483.24 128.72 L 490 128.88 L 490.54 130.17 L 487.79 132.54 L 492.6 136.27 L 496.4 131.11 L 502.52 129.95 L 501.97 127.86 L 503.41 124.92 L 501.12 124.64 L 502.41 121.48 L 500.26 119.98 L 499.1 116.68 L 500.2 113.79 L 497.42 110.85 L 499.78 108.61 L 498.7 107.43 L 497.32 107.93 L 497.05 106.42 L 500.77 103.14 L 497.45 102.92 L 499.59 100.24 L 497 98.1 L 498.88 94.42 L 496.42 91.51 L 496.78 88.71 L 494.5 87.2 L 494.84 83.84 L 484.79 73.74 L 481.23 73.28 L 481.58 71.25 L 479.63 70.29 L 481.13 67.87 L 481.16 63.33 L 478.82 61.84 L 477.2 62.7 L 476.28 59.61 L 474.58 59.21 L 474.88 55.12 L 470.65 52.46 L 466.99 61.97 L 463.93 65.09 L 458.37 68.08 L 452.22 66.96 L 452.59 73.66 L 447.39 80.56 L 440.6 97.19 L 437.56 99.27 L 443.8 110.33 L 442.01 112.59 L 445.72 121.87 L 427.95 130.77 L 420.71 138.95 L 420.68 146.48 L 467.2 172.99 Z M 569.44 141.96 L 553.06 153.5 L 539.75 154.8 L 528.85 159.63 L 528.16 165.73 L 529.18 169.63 L 532.39 173.63 L 532.57 184.92 L 544.47 185.89 L 562.4 184.66 L 574.09 186.28 L 574.27 167.49 L 571.75 149.05 L 569.44 141.96 Z M 528.85 159.63 L 539.75 154.8 L 553.06 153.5 L 555.59 151.49 L 538.68 144.45 L 537.41 139.34 L 532.05 132.85 L 537.04 122.72 L 533.1 123.51 L 529.88 122.24 L 530.52 124.78 L 528.38 124.32 L 528.33 126.98 L 525.59 129.05 L 525.02 131.54 L 521.79 132.81 L 522.15 135.85 L 519.86 134.13 L 520.86 136.19 L 519.7 138.6 L 517.04 138.2 L 520.54 141.8 L 519.32 144.97 L 521.16 146.19 L 520.9 150.24 L 524.44 155.75 L 527.52 157.25 L 528.85 159.63 Z M 529.88 122.24 L 533.1 123.51 L 539.56 121.53 L 540.28 116.52 L 539.15 110.28 L 540.15 107.75 L 552.85 106.35 L 556.6 103.73 L 556.79 99.43 L 560.25 97.63 L 561.7 93.74 L 566.31 87.77 L 584.03 83.39 L 593.85 66.13 L 581.06 57.35 L 577.53 50.7 L 566.62 73.8 L 564.2 76.36 L 560.39 77.24 L 554.77 80.82 L 554.42 75.11 L 556.17 74.09 L 556.75 71.44 L 546.25 66.13 L 552.23 59.73 L 554.52 53.92 L 548.45 53.69 L 538.73 48.61 L 535.94 59.84 L 532.07 57.88 L 533.35 74.19 L 531.98 77.23 L 533.79 80.31 L 528.89 82.88 L 526.79 88.64 L 527.18 89.86 L 533.55 89.48 L 529.37 92.71 L 530.91 94.77 L 528.95 97.01 L 530.29 101.08 L 527.88 102.12 L 529.23 105.94 L 528.49 108.15 L 530.37 109.78 L 531.87 115.15 L 530.68 121.76 L 529.88 122.24 Z M 577.73 50.28 L 580.35 54.28 L 580.21 52.5 L 577.8 50.13 L 577.73 50.28 Z M 577.53 50.7 L 576 48.48 L 569.9 47.68 L 564.57 51.04 L 564.97 53.7 L 563.64 52.72 L 563.86 51.2 L 554.52 53.92 L 552.23 59.73 L 546.25 66.13 L 556.75 71.44 L 556.17 74.09 L 554.42 75.11 L 554.77 80.82 L 560.39 77.24 L 564.2 76.36 L 566.62 73.8 L 577.53 50.7 Z M 528.89 82.88 L 533.79 80.31 L 531.98 77.23 L 533.35 74.19 L 532.07 57.88 L 535.94 59.84 L 538.73 48.61 L 535.48 46.81 L 522.2 42.12 L 517.34 41.97 L 482.99 52.88 L 476.1 53.14 L 472.64 51.22 L 471.19 51.77 L 472.22 54.3 L 474.88 55.12 L 474.58 59.21 L 476.28 59.61 L 477.2 62.7 L 478.82 61.84 L 481.16 63.33 L 481.13 67.87 L 479.63 70.29 L 481.58 71.25 L 481.23 73.28 L 482.4 74.19 L 484.25 73.33 L 487.05 75.54 L 490.43 80.48 L 494.84 83.84 L 494.98 87.87 L 499.72 91.96 L 504.45 91.08 L 507.09 91.91 L 508.35 90.1 L 514.94 90.1 L 517.09 84.98 L 516.35 81.91 L 522.79 83.03 L 524.69 80.93 L 527.62 81.42 L 528.89 82.88 Z M 600.94 74 L 601.12 80.15 L 602.64 74.1 L 600.94 74 Z M 619.1 83.91 L 614.22 79.39 L 612.7 80.23 L 612.52 78.85 L 614.12 79.25 L 611.53 76.03 L 604.49 71.27 L 601.16 81.64 L 601.66 99.05 L 606.15 98.46 L 616.47 91.84 L 620.18 93.2 L 618.81 84.94 L 619.1 83.91 Z M 601.43 99.08 L 600.45 69.11 L 603.35 65.57 L 601.83 67.67 L 593.94 66.16 L 582.62 84.19 L 587.49 87.5 L 593.04 86.95 L 595.49 94.61 L 593.15 99.02 L 599.53 99.33 L 601.43 99.08 Z M 603.81 70.83 L 603.25 73.54 L 604.12 70.8 L 603.81 70.83 Z M 602.44 67.49 L 601.02 69.7 L 601.09 73.84 L 602.72 73.88 L 603.46 70.81 L 602.21 68.63 L 602.44 67.49 Z M 593.15 99.02 L 595.49 94.61 L 593.04 86.95 L 587.49 87.5 L 582.62 84.19 L 566.31 87.77 L 561.7 93.74 L 560.25 97.63 L 556.79 99.43 L 556.6 103.73 L 552.85 106.35 L 540.15 107.75 L 539.15 110.28 L 539.87 120.96 L 537.04 122.72 L 532.05 132.85 L 537.41 139.34 L 538.68 144.45 L 555.59 151.49 L 569.44 141.96 L 566.57 129.12 L 563.34 125.8 L 563.56 124.09 L 583.01 124.45 L 585.97 125.96 L 589.17 125.14 L 592.88 119.1 L 592.71 102.38 L 593.15 99.02 Z" fill="#eadfc8" stroke="#8b7556" stroke-width="1.8" stroke-linejoin="round" fill-rule="evenodd" />
  </g>
  <g id="province-boundaries" opacity="0.58">
    <path d="M 619.1 83.91 L 622.55 126.96 L 630.59 138.96 L 632.52 145.03 L 634.43 151.91 L 634.27 167.23 L 636.19 172.76 L 679.43 176.6 L 695.76 179.74 L 736.81 198.22 L 745.93 201.23 L 760.71 202.77 L 773.1 200.89 L 773.38 193.96 L 770.94 183.89 L 755.53 138.29 L 750.76 134.8 L 751.5 128.2 L 748.94 125.42 L 749.17 120 L 747.66 113.96 L 741.43 100.12 L 729.06 63.71 L 713.67 73.53 L 692.92 79.77 L 681.22 79.57 L 673.73 74.79 L 665.71 72.24 L 678.93 78.06 L 679.9 79.06 L 679.08 78.84 L 678.18 82.87 L 672.12 80.33 L 656.79 85.79 L 657.32 82.86 L 655.57 80.64 L 653.74 80.47 L 655.17 80.15 L 653.95 79.22 L 655.12 77.9 L 657.47 79.6 L 653.59 74.87 L 649.16 77.21 L 646.7 80.83 L 644.38 81.23 L 648.94 82.18 L 649.37 80.3 L 651.63 79.61 L 651.06 81.94 L 648.2 82.84 L 649.17 84.04 L 647.92 85.19 L 644.68 84.57 L 646.3 82.35 L 643.54 81.41 L 642.91 82.5 L 638.64 81.98 L 633.25 85.6 L 630.25 85.58 L 628.91 86.81 L 627.31 86.54 L 628.38 86.15 L 627.96 85.08 L 625.33 85.36 L 642.43 78.49 L 642.19 77.34 L 631.2 83.33 L 621.02 84.57 L 619.1 83.91 Z M 643.14 78.08 L 654.86 71.4 L 665.56 72 L 654.2 71.26 L 642.8 78.23 L 643.14 78.08 Z" fill="none" stroke="#a69070" stroke-width="0.8" stroke-linejoin="round" />
    <path d="M 749.46 322.58 L 748.07 320.66 L 751.41 320.16 L 748.99 318.99 L 747.53 320.02 L 748.09 324.26 L 751.56 326.79 L 756.1 326.01 L 753.89 324.1 L 753.88 322.43 L 750.14 322.8 L 749.46 322.58 Z M 761.03 325.88 L 761.78 327.42 L 763.98 326.02 L 762.01 323.31 L 758.55 324.1 L 758.28 325.98 L 759.61 324.39 L 761.15 325.54 L 761.03 325.88 Z M 636.19 172.76 L 622.74 181.74 L 627.05 187.79 L 625.87 197.78 L 628.01 198.91 L 629.05 201.56 L 628.6 204.85 L 629.72 206.21 L 628.45 209.47 L 629.43 209.47 L 629.61 207.11 L 630.23 209.58 L 635.24 212.85 L 636.02 219.66 L 638.6 221.6 L 639.65 225.88 L 644.12 228.25 L 652.6 237.28 L 653.94 240.19 L 659.53 243.8 L 659.13 255.42 L 662.87 261.53 L 660.67 269.01 L 663.58 277.83 L 664.42 278.26 L 663.1 276.01 L 664.65 275.82 L 665.54 278.22 L 664.74 278.8 L 671.81 285.48 L 674.5 290.48 L 685.4 297.78 L 687.13 301.53 L 689.14 302.79 L 689.49 306.37 L 692.06 307.69 L 694.88 314.71 L 698.31 316.4 L 698.55 318.76 L 706.33 325.34 L 708.61 324.89 L 711.21 328.69 L 713.44 328.9 L 720.56 336.25 L 726.93 336.44 L 731.22 340.99 L 731.53 337.84 L 729.37 338.1 L 728.16 336.1 L 731.67 336.12 L 732.68 331.18 L 734.13 330.53 L 735.61 331.58 L 736.39 326.77 L 738.95 326.46 L 743.37 321.1 L 744.04 318.02 L 743.04 313.78 L 744.52 306.97 L 741.91 302.35 L 741.85 295.74 L 743.99 292.77 L 746.1 285.05 L 748.71 283.75 L 749.18 278 L 756.41 264.43 L 756 256.37 L 757.84 254.16 L 757.24 247.65 L 760.43 245.03 L 758.88 240.35 L 760.7 231.57 L 763.88 227.78 L 764.15 219.83 L 766.55 217.71 L 771.96 207.56 L 774.89 206.14 L 773.1 200.89 L 760.71 202.77 L 745.93 201.23 L 736.81 198.22 L 695.76 179.74 L 679.43 176.6 L 658.02 174.44 L 636.19 172.76 Z M 519.94 764 L 534.47 764 L 537.82 754.49 L 544.84 747.73 L 547.28 750.6 L 542.43 757.81 L 540.09 764 L 675.06 764 L 678.82 519.86 L 626.28 519.8 L 623.75 529.2 L 627.07 531.65 L 625.43 536.6 L 519.94 764 Z M 713.74 416.74 L 714.03 417.87 L 714.11 413.4 L 712.39 412.24 L 711.78 413.3 L 713.64 416.43 L 713.74 416.74 Z M 791.95 569.59 L 793.1 570.36 L 791.41 568.57 L 791.8 569.59 L 791.95 569.59 Z M 705.71 379.29 L 705.68 380.17 L 706.03 378.9 L 705.71 379.29 Z M 715.71 357.82 L 711.81 355.2 L 708.7 356.19 L 713.02 358.49 L 716.01 361.97 L 717.01 361.47 L 715.98 358.25 L 715.71 357.82 Z M 712.63 379.75 L 712.51 381.57 L 713.22 380.54 L 712.63 379.75 Z M 711.05 381.97 L 711.87 381.73 L 708.18 375.48 L 707.34 377.33 L 710.91 381.9 L 711.05 381.97 Z M 890.84 745.37 L 893.03 745.64 L 891.78 743.36 L 890.89 745.08 L 890.84 745.37 Z M 831.02 698.47 L 830.67 697.32 L 829.52 697.99 L 830.86 698.43 L 831.02 698.47 Z M 861.08 647.96 L 862.81 647.16 L 860.95 645.8 L 860.8 647.87 L 861.08 647.96 Z M 831.85 700.68 L 832.73 699.36 L 831.35 697.75 L 831.78 700.65 L 831.85 700.68 Z M 675.06 764 L 907.42 764 L 908.36 760.21 L 901.94 754.98 L 900.09 751.6 L 896.76 752.19 L 887.01 742.88 L 878.28 738.38 L 876.42 732.73 L 869.13 728.27 L 865.72 719.56 L 860.46 715.92 L 851.19 714.99 L 846.28 713.05 L 844.63 714.18 L 844.1 712.45 L 842.96 713.82 L 843.51 712.62 L 841.45 712.28 L 838.26 708.95 L 834.42 702.67 L 834.47 704.09 L 832.87 703.18 L 833.24 701.41 L 834.14 702.38 L 833.42 700.27 L 831.98 700.69 L 832.23 702.61 L 827.23 695.23 L 826.07 695.46 L 825.45 686.59 L 819.65 676 L 818.34 664.39 L 813.63 654.73 L 815.37 648.63 L 814.13 648.71 L 815.05 648.01 L 814.06 644.32 L 815.56 645.29 L 815.73 641.73 L 813.88 636.35 L 815.06 635.63 L 815.51 636.53 L 815.74 634.96 L 813.11 634.37 L 814.12 628.04 L 813.12 623.47 L 815.83 620.03 L 818.82 621.45 L 815.58 623.81 L 819 621.6 L 820.83 623.43 L 827.71 625.05 L 831.8 622.91 L 834.07 626.14 L 834.56 625.11 L 829.7 619.04 L 821.67 617.24 L 820.82 612.62 L 818.64 610.44 L 815.11 608.17 L 814.28 608.39 L 815.73 610.09 L 814.61 610.46 L 805.32 595.07 L 802.76 591.91 L 797.2 589.02 L 794.2 583.72 L 790.62 580.71 L 791.16 577.65 L 792.53 576.86 L 790.08 573.53 L 788.93 573.58 L 788.72 569.55 L 787.19 568.54 L 786.16 562.93 L 780.96 557.27 L 780.52 552.53 L 777.14 547.74 L 777.71 545.01 L 764.78 522.52 L 759.72 508.79 L 756.47 505.43 L 757.42 505.07 L 757.06 502.19 L 753.75 498.74 L 750.67 489.41 L 742.07 480.45 L 740.96 475.15 L 737.39 471.48 L 733.6 461.85 L 730.81 458.9 L 726.7 446.63 L 721.6 439.72 L 715.61 424.9 L 710.08 420.53 L 710.46 415.15 L 711.76 414.37 L 710.17 412.04 L 710.61 408.48 L 712.14 405.96 L 714.27 407.57 L 714.14 403.1 L 711.88 403.3 L 707.62 396.13 L 708.42 395.14 L 706.6 392.81 L 708.12 392.26 L 707.63 391.07 L 703.02 387.86 L 702.81 382.25 L 704.48 380.51 L 704.27 376.95 L 693.99 370.46 L 692.83 364.2 L 689.97 361.32 L 688.98 358.18 L 684.88 356.01 L 684.85 351.27 L 680.54 347.19 L 682.64 344.39 L 685.05 346.03 L 684.82 344.49 L 687.2 346.56 L 683.43 342.4 L 684.61 338.17 L 682.21 339.02 L 678.84 334.58 L 680.05 332.46 L 684.72 333.99 L 685.7 336.14 L 686.82 335.68 L 686.55 331.65 L 683.01 325.42 L 679.43 320.79 L 675.24 317.6 L 672.55 317.66 L 670.16 316 L 669.96 313.7 L 666.08 309.61 L 663.66 309.06 L 663.64 307.14 L 655.81 297.93 L 654.7 292.96 L 651.21 290.16 L 648.82 284.81 L 642.66 278.08 L 638.4 276.44 L 634.49 261.22 L 630.5 258.72 L 626.46 253.74 L 624.85 248.86 L 622.07 245.41 L 622.15 239.66 L 625.01 236.22 L 624.19 234.12 L 619.04 233.31 L 615.03 234.15 L 611.15 236.54 L 588.44 243.92 L 578.44 244.63 L 574.78 257.9 L 570.84 264.49 L 571.85 272.63 L 566.17 279.22 L 567.27 287.55 L 574.14 299.63 L 598.2 295.69 L 607.63 300.36 L 618.89 314.18 L 626.94 335.5 L 630.87 353.62 L 625.11 371.65 L 633.53 398.1 L 633.89 410.63 L 637.55 410.82 L 643.5 414.75 L 661.99 433.42 L 670.41 429.85 L 685.32 463.99 L 685.14 467.65 L 675.99 479.82 L 671.05 491.26 L 671.69 496.01 L 678.73 503.11 L 678.82 519.86 L 675.06 764 Z M 692.45 347.94 L 692.62 347.97 L 692.88 347.65 L 692.72 347.36 L 692.31 346.93 L 691.86 346.91 L 692.45 347.94 Z M 697.64 351.74 L 699.56 352.56 L 698.6 353.33 L 700.14 354.55 L 699.39 353.35 L 701.17 351.89 L 699.48 350.88 L 698.8 348.34 L 697.41 351.75 L 697.64 351.74 Z M 689.21 345.18 L 690.2 346.45 L 689.29 344.34 L 689.21 345.18 Z M 700.45 344.69 L 701.52 344.16 L 700.51 344.28 L 700.45 344.69 Z M 693.04 341.63 L 692.21 341.71 L 693.74 344.09 L 693.25 341.63 L 693.04 341.63 Z M 688.34 337.72 L 686.96 336.46 L 687.49 338.42 L 688.06 337.78 L 688.34 337.72 Z M 701.57 348.97 L 702.02 346.78 L 700.6 345.5 L 699.91 346.57 L 701.36 348.98 L 701.57 348.97 Z M 694.14 344.32 L 694.61 346.56 L 696.91 344.69 L 696.78 342.33 L 694.56 344.32 L 694.14 344.32 Z M 418.71 89.04 L 406.22 96.7 L 393.98 101.62 L 388.62 102.96 L 380.51 102.86 L 373.06 98.8 L 368.47 95.19 L 368 92.75 L 363.79 91.68 L 363.43 90.28 L 353.05 87.81 L 349.67 84.93 L 346.72 85.03 L 341.34 82.17 L 333.51 83.78 L 325.89 83.33 L 322.86 81.85 L 307.61 81.48 L 305.35 79.81 L 302.89 69.8 L 300.21 72.24 L 290.6 75.19 L 288.4 74.97 L 287.98 73.71 L 275.2 72.18 L 271.17 68.53 L 268.11 59.85 L 257.51 60.94 L 257.54 59.96 L 260.45 60.13 L 250.53 59.06 L 249.58 57.19 L 246.07 56.8 L 244.2 54.4 L 234.35 54.42 L 228.7 51.15 L 217.64 50.74 L 215.66 49.41 L 211.52 50.25 L 172.07 39.79 L 144.6 48.42 L 130.66 49.41 L 122.58 46.75 L 122.01 45.19 L 123.35 44.34 L 121.38 40.75 L 121.11 36 L 120.28 36.48 L 116.38 42.06 L 116.4 45.84 L 107.23 52.33 L 106.88 55.93 L 102.47 59.68 L 103.53 71.05 L 102.54 76.82 L 105.37 87.88 L 112.58 105.65 L 106.34 127.57 L 101.17 136.38 L 96.61 140.95 L 91.64 153.77 L 100.22 176.37 L 98.73 183.49 L 103.72 192.79 L 103.08 204.93 L 111.14 224.73 L 111.31 339.11 L 266.13 339.94 L 297.96 271.7 L 361.2 257.63 L 417.56 201.11 L 467.2 172.99 L 420.68 146.48 L 419.03 89.78 L 418.71 89.04 Z M 378.02 101.34 L 380.72 102.52 L 381.18 101.64 L 378.49 101.55 L 378.02 101.34 Z M 623.75 529.2 L 616.16 523.46 L 612.88 514.5 L 612.2 507.6 L 609.33 501.17 L 609.6 495.36 L 625.74 482.2 L 629.97 466.07 L 629.84 461.77 L 624.98 457.39 L 599.76 467.78 L 592.38 467.78 L 587.32 465.58 L 575.68 454.57 L 548.1 419.49 L 535.17 406.7 L 524.43 386.26 L 518.65 379.17 L 506.51 372.95 L 497.04 363 L 490.61 350.13 L 490.19 340.55 L 111.31 339.11 L 111.29 764 L 519.94 764 L 627.07 531.65 L 623.75 529.2 Z M 420.71 138.95 L 427.95 130.77 L 445.72 121.87 L 442.01 112.59 L 443.8 110.33 L 437.56 99.27 L 440.6 97.19 L 447.39 80.56 L 452.59 73.66 L 452.22 66.96 L 450.86 64.16 L 452.07 63.03 L 439.67 73.23 L 438.05 72.52 L 436.05 76.11 L 437.6 73.45 L 438.3 74.63 L 435.04 77.87 L 432.54 78.54 L 431.96 77.69 L 433.33 76.88 L 431.97 77.5 L 418.71 89.04 L 420.35 130.62 L 420.71 138.95 Z M 601.26 120.95 L 601.09 123.73 L 603.04 126.86 L 602.48 120.97 L 601.26 120.95 Z M 603.51 129.3 L 604.15 132.09 L 603.88 129.26 L 603.51 129.3 Z M 603.09 126.99 L 603.81 129.2 L 603.46 126.9 L 603.09 126.99 Z M 593.15 99.02 L 592.88 119.1 L 589.17 125.14 L 585.97 125.96 L 583.01 124.45 L 563.56 124.09 L 563.34 125.8 L 566.57 129.12 L 567.66 136.53 L 571.75 149.05 L 600.81 147.9 L 607.37 151.13 L 611.07 150.84 L 615.24 147.68 L 611.25 146.39 L 611.95 148.13 L 609.28 148.38 L 607.62 145.28 L 603.53 144.59 L 600.6 140.26 L 601.21 135.66 L 604.28 134.87 L 602.73 126.75 L 598.41 121.37 L 600.91 121.2 L 603.31 112.25 L 601.42 105.71 L 601.43 99.08 L 599.53 99.33 L 593.15 99.02 Z M 620.18 93.2 L 616.47 91.84 L 606.15 98.46 L 601.66 99.05 L 604.17 112.71 L 602.7 121.42 L 604.86 134.74 L 609.86 139.62 L 611.34 145.28 L 616.47 146.86 L 632.76 146.92 L 630.59 138.96 L 622.55 126.96 L 620.78 100.37 L 620.18 93.2 Z M 603.26 113.75 L 601.34 120.88 L 602.48 120.81 L 603.85 113.91 L 603.26 113.75 Z M 603.48 111.02 L 603.76 113.77 L 603.85 111.9 L 603.48 111.02 Z M 601.69 104.61 L 601.64 105.76 L 602.11 108.47 L 602.43 109.33 L 603.1 110.4 L 601.69 104.61 Z M 624.19 234.12 L 618.86 215.14 L 606.01 203.49 L 603.35 198.36 L 605.3 194.34 L 603.77 193.44 L 605.19 193.84 L 604.68 191.38 L 614.53 177.63 L 612.49 177.5 L 611.17 175.24 L 612.31 171.74 L 615.55 170.32 L 616.56 171.44 L 615.75 170.39 L 617.8 169.98 L 618.06 171.97 L 619.5 169.68 L 617.9 151.42 L 616.26 151.6 L 615.24 147.68 L 611.07 150.84 L 607.37 151.13 L 600.81 147.9 L 571.75 149.05 L 574.27 167.49 L 574.09 186.28 L 569.95 243.01 L 578.44 244.63 L 588.44 243.92 L 611.15 236.54 L 615.03 234.15 L 619.04 233.31 L 622.54 234.28 L 624.19 234.12 Z M 632.76 146.92 L 616.47 146.86 L 618.82 150.49 L 619.78 168.32 L 619.42 171.03 L 617.85 172.5 L 622.83 176.95 L 621.18 180.6 L 622.74 181.74 L 636.19 172.76 L 634.27 167.23 L 634.43 151.91 L 632.76 146.92 Z M 497.37 90.07 L 496.42 91.51 L 498.88 94.42 L 497 98.1 L 499.59 100.24 L 497.45 102.92 L 500.77 103.14 L 496.89 107.18 L 499.69 108.38 L 497.42 110.85 L 500.19 114.13 L 509.48 112.44 L 512.7 114.98 L 517.04 115.17 L 518.21 117.47 L 522.16 117.71 L 526.84 121.47 L 530.68 121.76 L 531.87 115.15 L 530.37 109.78 L 528.49 108.15 L 529.23 105.94 L 527.88 102.12 L 530.29 101.08 L 528.95 97.01 L 530.91 94.77 L 529.37 92.71 L 533.55 89.48 L 527.18 89.86 L 528.89 82.88 L 527.62 81.42 L 524.69 80.93 L 522.79 83.03 L 516.35 81.91 L 517.09 84.98 L 514.94 90.1 L 508.35 90.1 L 507.09 91.91 L 504.45 91.08 L 499.72 91.96 L 498.11 90.1 L 497.37 90.07 Z M 436.29 236.74 L 451.26 241.85 L 466.4 241.85 L 466.58 246.78 L 476.07 245.86 L 504.72 234.55 L 505.08 227.62 L 513.11 226.7 L 513.48 221.59 L 520.96 213.75 L 521.56 210.36 L 514.94 188.75 L 493.04 190.03 L 484.1 195.68 L 436.29 236.74 Z M 578.44 244.63 L 567.92 242.62 L 527.58 229.51 L 528.84 224.48 L 526.96 220.3 L 529.11 215.63 L 527.55 210.33 L 521.56 210.36 L 520.96 213.75 L 513.48 221.59 L 513.11 226.7 L 505.08 227.62 L 504.72 234.55 L 476.07 245.86 L 466.58 246.78 L 466.4 241.85 L 451.26 241.85 L 436.29 236.74 L 431.58 258.93 L 435.51 260.48 L 500.74 261.76 L 505.71 264.72 L 515.84 265.37 L 528.2 286.94 L 533 290.4 L 542.68 295.43 L 557.13 298.91 L 574.14 299.63 L 567.27 287.55 L 566.17 279.22 L 571.85 272.63 L 570.84 264.49 L 574.78 257.9 L 577.8 248.47 L 578.44 244.63 Z M 574.14 299.63 L 557.13 298.91 L 542.68 295.43 L 533 290.4 L 528.2 286.94 L 515.84 265.37 L 505.71 264.72 L 500.74 261.76 L 435.51 260.48 L 431.58 258.93 L 430.22 270.7 L 418.54 293.87 L 395.36 310.11 L 367.45 321.61 L 354.21 339.76 L 490.19 340.55 L 491.33 347.18 L 494.06 348.63 L 501.18 349 L 505.56 345.35 L 555.92 343.16 L 588.22 331.48 L 608.47 326.92 L 624.19 327.45 L 618.89 314.18 L 607.63 300.36 L 598.2 295.69 L 575.87 299.72 L 574.14 299.63 Z M 624.19 327.45 L 608.47 326.92 L 588.22 331.48 L 555.92 343.16 L 505.56 345.35 L 501.18 349 L 494.06 348.63 L 491.33 347.18 L 490.19 340.55 L 490.61 350.13 L 497.04 363 L 506.51 372.95 L 518.65 379.17 L 524.43 386.26 L 533.22 403.66 L 541.32 397.9 L 573.62 391.33 L 591.14 396.81 L 621.61 367.43 L 625.47 368.08 L 630.23 357.83 L 630.87 353.62 L 626.94 335.5 L 624.19 327.45 Z M 625.47 368.08 L 621.61 367.43 L 591.14 396.81 L 573.62 391.33 L 541.32 397.9 L 533.22 403.66 L 543.81 416.31 L 548.1 419.49 L 575.68 454.57 L 590.28 448.94 L 599.4 456.19 L 633.89 410.63 L 633.53 398.1 L 625.11 371.65 L 625.47 368.08 Z M 678.82 519.86 L 678.73 503.11 L 671.69 496.01 L 671.05 491.26 L 675.99 479.82 L 685.14 467.65 L 685.32 463.99 L 670.41 429.85 L 661.99 433.42 L 643.5 414.75 L 637.55 410.82 L 633.89 410.63 L 599.4 456.19 L 590.28 448.94 L 575.68 454.57 L 587.32 465.58 L 592.38 467.78 L 599.76 467.78 L 624.98 457.39 L 629.84 461.77 L 629.97 466.07 L 627.85 471.68 L 644.65 471.65 L 645.24 484.91 L 635.1 500.99 L 617.9 512.87 L 612.88 514.5 L 616.16 523.46 L 623.75 529.2 L 626.28 519.8 L 678.82 519.86 Z M 612.88 514.5 L 617.9 512.87 L 635.1 500.99 L 645.24 484.91 L 644.65 471.65 L 627.85 471.68 L 625.74 482.2 L 609.6 495.36 L 609.33 501.17 L 612.2 507.6 L 612.88 514.5 Z M 266.13 339.94 L 354.21 339.76 L 367.45 321.61 L 395.36 310.11 L 418.54 293.87 L 430.22 270.7 L 436.29 236.74 L 484.1 195.68 L 493.04 190.03 L 514.94 188.75 L 521.56 210.36 L 527.55 210.33 L 529.11 215.63 L 526.96 220.3 L 528.84 224.48 L 527.58 229.51 L 569.95 243.01 L 574.09 186.28 L 562.4 184.66 L 544.47 185.89 L 532.57 184.92 L 532.39 173.63 L 528.63 168.09 L 528.85 159.63 L 527.52 157.25 L 517.96 149.86 L 514.29 151.56 L 512.73 150.81 L 510.35 144.91 L 507.63 144.74 L 507.72 140.92 L 504.94 140.47 L 502.36 141.55 L 499.06 145.66 L 467.2 172.99 L 417.56 201.11 L 361.2 257.63 L 297.96 271.7 L 266.13 339.94 Z M 500.19 114.13 L 499.1 116.68 L 500.75 121.02 L 502.41 121.48 L 500.84 123.98 L 503.41 124.92 L 501.97 127.86 L 502.52 129.95 L 496.4 131.11 L 492.6 136.27 L 487.79 132.54 L 490.54 130.17 L 490 128.88 L 483.24 128.72 L 481.16 130.76 L 478.91 140.53 L 495.2 148.97 L 502.36 141.55 L 507.72 140.92 L 507.63 144.74 L 510.35 144.91 L 512.73 150.81 L 514.29 151.56 L 517.96 149.86 L 522.9 153.59 L 520.38 148.33 L 521.16 146.19 L 519.32 144.97 L 520.54 141.8 L 517.04 138.2 L 519.7 138.6 L 520.86 136.19 L 519.86 134.13 L 522.15 135.85 L 521.79 132.81 L 525.02 131.54 L 525.59 129.05 L 528.33 126.98 L 528.38 124.32 L 530.52 124.78 L 529.88 122.24 L 526.84 121.47 L 522.16 117.71 L 518.21 117.47 L 517.04 115.17 L 512.7 114.98 L 509.48 112.44 L 506.01 112.3 L 504.31 113.91 L 500.19 114.13 Z M 467.2 172.99 L 495.2 148.97 L 478.91 140.53 L 481.16 130.76 L 483.24 128.72 L 490 128.88 L 490.54 130.17 L 487.79 132.54 L 492.6 136.27 L 496.4 131.11 L 502.52 129.95 L 501.97 127.86 L 503.41 124.92 L 501.12 124.64 L 502.41 121.48 L 500.26 119.98 L 499.1 116.68 L 500.2 113.79 L 497.42 110.85 L 499.78 108.61 L 498.7 107.43 L 497.32 107.93 L 497.05 106.42 L 500.77 103.14 L 497.45 102.92 L 499.59 100.24 L 497 98.1 L 498.88 94.42 L 496.42 91.51 L 496.78 88.71 L 494.5 87.2 L 494.84 83.84 L 484.79 73.74 L 481.23 73.28 L 481.58 71.25 L 479.63 70.29 L 481.13 67.87 L 481.16 63.33 L 478.82 61.84 L 477.2 62.7 L 476.28 59.61 L 474.58 59.21 L 474.88 55.12 L 470.65 52.46 L 466.99 61.97 L 463.93 65.09 L 458.37 68.08 L 452.22 66.96 L 452.59 73.66 L 447.39 80.56 L 440.6 97.19 L 437.56 99.27 L 443.8 110.33 L 442.01 112.59 L 445.72 121.87 L 427.95 130.77 L 420.71 138.95 L 420.68 146.48 L 467.2 172.99 Z M 569.44 141.96 L 553.06 153.5 L 539.75 154.8 L 528.85 159.63 L 528.16 165.73 L 529.18 169.63 L 532.39 173.63 L 532.57 184.92 L 544.47 185.89 L 562.4 184.66 L 574.09 186.28 L 574.27 167.49 L 571.75 149.05 L 569.44 141.96 Z M 528.85 159.63 L 539.75 154.8 L 553.06 153.5 L 555.59 151.49 L 538.68 144.45 L 537.41 139.34 L 532.05 132.85 L 537.04 122.72 L 533.1 123.51 L 529.88 122.24 L 530.52 124.78 L 528.38 124.32 L 528.33 126.98 L 525.59 129.05 L 525.02 131.54 L 521.79 132.81 L 522.15 135.85 L 519.86 134.13 L 520.86 136.19 L 519.7 138.6 L 517.04 138.2 L 520.54 141.8 L 519.32 144.97 L 521.16 146.19 L 520.9 150.24 L 524.44 155.75 L 527.52 157.25 L 528.85 159.63 Z M 529.88 122.24 L 533.1 123.51 L 539.56 121.53 L 540.28 116.52 L 539.15 110.28 L 540.15 107.75 L 552.85 106.35 L 556.6 103.73 L 556.79 99.43 L 560.25 97.63 L 561.7 93.74 L 566.31 87.77 L 584.03 83.39 L 593.85 66.13 L 581.06 57.35 L 577.53 50.7 L 566.62 73.8 L 564.2 76.36 L 560.39 77.24 L 554.77 80.82 L 554.42 75.11 L 556.17 74.09 L 556.75 71.44 L 546.25 66.13 L 552.23 59.73 L 554.52 53.92 L 548.45 53.69 L 538.73 48.61 L 535.94 59.84 L 532.07 57.88 L 533.35 74.19 L 531.98 77.23 L 533.79 80.31 L 528.89 82.88 L 526.79 88.64 L 527.18 89.86 L 533.55 89.48 L 529.37 92.71 L 530.91 94.77 L 528.95 97.01 L 530.29 101.08 L 527.88 102.12 L 529.23 105.94 L 528.49 108.15 L 530.37 109.78 L 531.87 115.15 L 530.68 121.76 L 529.88 122.24 Z M 577.73 50.28 L 580.35 54.28 L 580.21 52.5 L 577.8 50.13 L 577.73 50.28 Z M 577.53 50.7 L 576 48.48 L 569.9 47.68 L 564.57 51.04 L 564.97 53.7 L 563.64 52.72 L 563.86 51.2 L 554.52 53.92 L 552.23 59.73 L 546.25 66.13 L 556.75 71.44 L 556.17 74.09 L 554.42 75.11 L 554.77 80.82 L 560.39 77.24 L 564.2 76.36 L 566.62 73.8 L 577.53 50.7 Z M 528.89 82.88 L 533.79 80.31 L 531.98 77.23 L 533.35 74.19 L 532.07 57.88 L 535.94 59.84 L 538.73 48.61 L 535.48 46.81 L 522.2 42.12 L 517.34 41.97 L 482.99 52.88 L 476.1 53.14 L 472.64 51.22 L 471.19 51.77 L 472.22 54.3 L 474.88 55.12 L 474.58 59.21 L 476.28 59.61 L 477.2 62.7 L 478.82 61.84 L 481.16 63.33 L 481.13 67.87 L 479.63 70.29 L 481.58 71.25 L 481.23 73.28 L 482.4 74.19 L 484.25 73.33 L 487.05 75.54 L 490.43 80.48 L 494.84 83.84 L 494.98 87.87 L 499.72 91.96 L 504.45 91.08 L 507.09 91.91 L 508.35 90.1 L 514.94 90.1 L 517.09 84.98 L 516.35 81.91 L 522.79 83.03 L 524.69 80.93 L 527.62 81.42 L 528.89 82.88 Z M 600.94 74 L 601.12 80.15 L 602.64 74.1 L 600.94 74 Z M 619.1 83.91 L 614.22 79.39 L 612.7 80.23 L 612.52 78.85 L 614.12 79.25 L 611.53 76.03 L 604.49 71.27 L 601.16 81.64 L 601.66 99.05 L 606.15 98.46 L 616.47 91.84 L 620.18 93.2 L 618.81 84.94 L 619.1 83.91 Z M 601.43 99.08 L 600.45 69.11 L 603.35 65.57 L 601.83 67.67 L 593.94 66.16 L 582.62 84.19 L 587.49 87.5 L 593.04 86.95 L 595.49 94.61 L 593.15 99.02 L 599.53 99.33 L 601.43 99.08 Z M 603.81 70.83 L 603.25 73.54 L 604.12 70.8 L 603.81 70.83 Z M 602.44 67.49 L 601.02 69.7 L 601.09 73.84 L 602.72 73.88 L 603.46 70.81 L 602.21 68.63 L 602.44 67.49 Z M 593.15 99.02 L 595.49 94.61 L 593.04 86.95 L 587.49 87.5 L 582.62 84.19 L 566.31 87.77 L 561.7 93.74 L 560.25 97.63 L 556.79 99.43 L 556.6 103.73 L 552.85 106.35 L 540.15 107.75 L 539.15 110.28 L 539.87 120.96 L 537.04 122.72 L 532.05 132.85 L 537.41 139.34 L 538.68 144.45 L 555.59 151.49 L 569.44 141.96 L 566.57 129.12 L 563.34 125.8 L 563.56 124.09 L 583.01 124.45 L 585.97 125.96 L 589.17 125.14 L 592.88 119.1 L 592.71 102.38 L 593.15 99.02 Z" fill="none" stroke="#a69070" stroke-width="0.8" stroke-linejoin="round" />
  </g>
  <g id="scenario-regions">
    <g id="cairo-region">
      <path id="cairo-shape" d="M 569.44 141.96 L 553.06 153.5 L 539.75 154.8 L 528.85 159.63 L 528.16 165.73 L 529.18 169.63 L 532.39 173.63 L 532.57 184.92 L 544.47 185.89 L 562.4 184.66 L 574.09 186.28 L 574.27 167.49 L 571.75 149.05 L 569.44 141.96 Z M 266.13 339.94 L 354.21 339.76 L 367.45 321.61 L 395.36 310.11 L 418.54 293.87 L 430.22 270.7 L 436.29 236.74 L 484.1 195.68 L 493.04 190.03 L 514.94 188.75 L 521.56 210.36 L 527.55 210.33 L 529.11 215.63 L 526.96 220.3 L 528.84 224.48 L 527.58 229.51 L 569.95 243.01 L 574.09 186.28 L 562.4 184.66 L 544.47 185.89 L 532.57 184.92 L 532.39 173.63 L 528.63 168.09 L 528.85 159.63 L 527.52 157.25 L 517.96 149.86 L 514.29 151.56 L 512.73 150.81 L 510.35 144.91 L 507.63 144.74 L 507.72 140.92 L 504.94 140.47 L 502.36 141.55 L 499.06 145.66 L 467.2 172.99 L 417.56 201.11 L 361.2 257.63 L 297.96 271.7 L 266.13 339.94 Z" fill="#8d6746" fill-opacity="0.78" stroke="none" />
    </g>
    <g id="alexandria-region">
      <path id="alexandria-shape" d="M 420.71 138.95 L 427.95 130.77 L 445.72 121.87 L 442.01 112.59 L 443.8 110.33 L 437.56 99.27 L 440.6 97.19 L 447.39 80.56 L 452.59 73.66 L 452.22 66.96 L 450.86 64.16 L 452.07 63.03 L 439.67 73.23 L 438.05 72.52 L 436.05 76.11 L 437.6 73.45 L 438.3 74.63 L 435.04 77.87 L 432.54 78.54 L 431.96 77.69 L 433.33 76.88 L 431.97 77.5 L 418.71 89.04 L 420.35 130.62 L 420.71 138.95 Z M 418.71 89.04 L 406.22 96.7 L 393.98 101.62 L 388.62 102.96 L 380.51 102.86 L 373.06 98.8 L 368.47 95.19 L 368 92.75 L 363.79 91.68 L 363.43 90.28 L 353.05 87.81 L 349.67 84.93 L 346.72 85.03 L 341.34 82.17 L 333.51 83.78 L 325.89 83.33 L 322.86 81.85 L 307.61 81.48 L 305.35 79.81 L 302.89 69.8 L 300.21 72.24 L 290.6 75.19 L 288.4 74.97 L 287.98 73.71 L 275.2 72.18 L 271.17 68.53 L 268.11 59.85 L 257.51 60.94 L 257.54 59.96 L 260.45 60.13 L 250.53 59.06 L 249.58 57.19 L 246.07 56.8 L 244.2 54.4 L 234.35 54.42 L 228.7 51.15 L 217.64 50.74 L 215.66 49.41 L 211.52 50.25 L 172.07 39.79 L 144.6 48.42 L 130.66 49.41 L 122.58 46.75 L 122.01 45.19 L 123.35 44.34 L 121.38 40.75 L 121.11 36 L 120.28 36.48 L 116.38 42.06 L 116.4 45.84 L 107.23 52.33 L 106.88 55.93 L 102.47 59.68 L 103.53 71.05 L 102.54 76.82 L 105.37 87.88 L 112.58 105.65 L 106.34 127.57 L 101.17 136.38 L 96.61 140.95 L 91.64 153.77 L 100.22 176.37 L 98.73 183.49 L 103.72 192.79 L 103.08 204.93 L 111.14 224.73 L 111.31 339.11 L 266.13 339.94 L 297.96 271.7 L 361.2 257.63 L 417.56 201.11 L 467.2 172.99 L 420.68 146.48 L 419.03 89.78 L 418.71 89.04 Z M 378.02 101.34 L 380.72 102.52 L 381.18 101.64 L 378.49 101.55 L 378.02 101.34 Z" fill="#9b7d5b" fill-opacity="0.78" stroke="none" />
    </g>
    <g id="nile-delta-region">
      <path id="nile-delta-shape" d="M 467.2 172.99 L 495.2 148.97 L 478.91 140.53 L 481.16 130.76 L 483.24 128.72 L 490 128.88 L 490.54 130.17 L 487.79 132.54 L 492.6 136.27 L 496.4 131.11 L 502.52 129.95 L 501.97 127.86 L 503.41 124.92 L 501.12 124.64 L 502.41 121.48 L 500.26 119.98 L 499.1 116.68 L 500.2 113.79 L 497.42 110.85 L 499.78 108.61 L 498.7 107.43 L 497.32 107.93 L 497.05 106.42 L 500.77 103.14 L 497.45 102.92 L 499.59 100.24 L 497 98.1 L 498.88 94.42 L 496.42 91.51 L 496.78 88.71 L 494.5 87.2 L 494.84 83.84 L 484.79 73.74 L 481.23 73.28 L 481.58 71.25 L 479.63 70.29 L 481.13 67.87 L 481.16 63.33 L 478.82 61.84 L 477.2 62.7 L 476.28 59.61 L 474.58 59.21 L 474.88 55.12 L 470.65 52.46 L 466.99 61.97 L 463.93 65.09 L 458.37 68.08 L 452.22 66.96 L 452.59 73.66 L 447.39 80.56 L 440.6 97.19 L 437.56 99.27 L 443.8 110.33 L 442.01 112.59 L 445.72 121.87 L 427.95 130.77 L 420.71 138.95 L 420.68 146.48 L 467.2 172.99 Z M 529.88 122.24 L 533.1 123.51 L 539.56 121.53 L 540.28 116.52 L 539.15 110.28 L 540.15 107.75 L 552.85 106.35 L 556.6 103.73 L 556.79 99.43 L 560.25 97.63 L 561.7 93.74 L 566.31 87.77 L 584.03 83.39 L 593.85 66.13 L 581.06 57.35 L 577.53 50.7 L 566.62 73.8 L 564.2 76.36 L 560.39 77.24 L 554.77 80.82 L 554.42 75.11 L 556.17 74.09 L 556.75 71.44 L 546.25 66.13 L 552.23 59.73 L 554.52 53.92 L 548.45 53.69 L 538.73 48.61 L 535.94 59.84 L 532.07 57.88 L 533.35 74.19 L 531.98 77.23 L 533.79 80.31 L 528.89 82.88 L 526.79 88.64 L 527.18 89.86 L 533.55 89.48 L 529.37 92.71 L 530.91 94.77 L 528.95 97.01 L 530.29 101.08 L 527.88 102.12 L 529.23 105.94 L 528.49 108.15 L 530.37 109.78 L 531.87 115.15 L 530.68 121.76 L 529.88 122.24 Z M 577.73 50.28 L 580.35 54.28 L 580.21 52.5 L 577.8 50.13 L 577.73 50.28 Z M 577.53 50.7 L 576 48.48 L 569.9 47.68 L 564.57 51.04 L 564.97 53.7 L 563.64 52.72 L 563.86 51.2 L 554.52 53.92 L 552.23 59.73 L 546.25 66.13 L 556.75 71.44 L 556.17 74.09 L 554.42 75.11 L 554.77 80.82 L 560.39 77.24 L 564.2 76.36 L 566.62 73.8 L 577.53 50.7 Z M 497.37 90.07 L 496.42 91.51 L 498.88 94.42 L 497 98.1 L 499.59 100.24 L 497.45 102.92 L 500.77 103.14 L 496.89 107.18 L 499.69 108.38 L 497.42 110.85 L 500.19 114.13 L 509.48 112.44 L 512.7 114.98 L 517.04 115.17 L 518.21 117.47 L 522.16 117.71 L 526.84 121.47 L 530.68 121.76 L 531.87 115.15 L 530.37 109.78 L 528.49 108.15 L 529.23 105.94 L 527.88 102.12 L 530.29 101.08 L 528.95 97.01 L 530.91 94.77 L 529.37 92.71 L 533.55 89.48 L 527.18 89.86 L 528.89 82.88 L 527.62 81.42 L 524.69 80.93 L 522.79 83.03 L 516.35 81.91 L 517.09 84.98 L 514.94 90.1 L 508.35 90.1 L 507.09 91.91 L 504.45 91.08 L 499.72 91.96 L 498.11 90.1 L 497.37 90.07 Z M 528.89 82.88 L 533.79 80.31 L 531.98 77.23 L 533.35 74.19 L 532.07 57.88 L 535.94 59.84 L 538.73 48.61 L 535.48 46.81 L 522.2 42.12 L 517.34 41.97 L 482.99 52.88 L 476.1 53.14 L 472.64 51.22 L 471.19 51.77 L 472.22 54.3 L 474.88 55.12 L 474.58 59.21 L 476.28 59.61 L 477.2 62.7 L 478.82 61.84 L 481.16 63.33 L 481.13 67.87 L 479.63 70.29 L 481.58 71.25 L 481.23 73.28 L 482.4 74.19 L 484.25 73.33 L 487.05 75.54 L 490.43 80.48 L 494.84 83.84 L 494.98 87.87 L 499.72 91.96 L 504.45 91.08 L 507.09 91.91 L 508.35 90.1 L 514.94 90.1 L 517.09 84.98 L 516.35 81.91 L 522.79 83.03 L 524.69 80.93 L 527.62 81.42 L 528.89 82.88 Z M 500.19 114.13 L 499.1 116.68 L 500.75 121.02 L 502.41 121.48 L 500.84 123.98 L 503.41 124.92 L 501.97 127.86 L 502.52 129.95 L 496.4 131.11 L 492.6 136.27 L 487.79 132.54 L 490.54 130.17 L 490 128.88 L 483.24 128.72 L 481.16 130.76 L 478.91 140.53 L 495.2 148.97 L 502.36 141.55 L 507.72 140.92 L 507.63 144.74 L 510.35 144.91 L 512.73 150.81 L 514.29 151.56 L 517.96 149.86 L 522.9 153.59 L 520.38 148.33 L 521.16 146.19 L 519.32 144.97 L 520.54 141.8 L 517.04 138.2 L 519.7 138.6 L 520.86 136.19 L 519.86 134.13 L 522.15 135.85 L 521.79 132.81 L 525.02 131.54 L 525.59 129.05 L 528.33 126.98 L 528.38 124.32 L 530.52 124.78 L 529.88 122.24 L 526.84 121.47 L 522.16 117.71 L 518.21 117.47 L 517.04 115.17 L 512.7 114.98 L 509.48 112.44 L 506.01 112.3 L 504.31 113.91 L 500.19 114.13 Z M 528.85 159.63 L 539.75 154.8 L 553.06 153.5 L 555.59 151.49 L 538.68 144.45 L 537.41 139.34 L 532.05 132.85 L 537.04 122.72 L 533.1 123.51 L 529.88 122.24 L 530.52 124.78 L 528.38 124.32 L 528.33 126.98 L 525.59 129.05 L 525.02 131.54 L 521.79 132.81 L 522.15 135.85 L 519.86 134.13 L 520.86 136.19 L 519.7 138.6 L 517.04 138.2 L 520.54 141.8 L 519.32 144.97 L 521.16 146.19 L 520.9 150.24 L 524.44 155.75 L 527.52 157.25 L 528.85 159.63 Z M 593.15 99.02 L 595.49 94.61 L 593.04 86.95 L 587.49 87.5 L 582.62 84.19 L 566.31 87.77 L 561.7 93.74 L 560.25 97.63 L 556.79 99.43 L 556.6 103.73 L 552.85 106.35 L 540.15 107.75 L 539.15 110.28 L 539.87 120.96 L 537.04 122.72 L 532.05 132.85 L 537.41 139.34 L 538.68 144.45 L 555.59 151.49 L 569.44 141.96 L 566.57 129.12 L 563.34 125.8 L 563.56 124.09 L 583.01 124.45 L 585.97 125.96 L 589.17 125.14 L 592.88 119.1 L 592.71 102.38 L 593.15 99.02 Z" fill="#ae8a61" fill-opacity="0.78" stroke="none" />
    </g>
    <g id="upper-egypt-region">
      <path id="upper-egypt-shape" d="M 436.29 236.74 L 451.26 241.85 L 466.4 241.85 L 466.58 246.78 L 476.07 245.86 L 504.72 234.55 L 505.08 227.62 L 513.11 226.7 L 513.48 221.59 L 520.96 213.75 L 521.56 210.36 L 514.94 188.75 L 493.04 190.03 L 484.1 195.68 L 436.29 236.74 Z M 578.44 244.63 L 567.92 242.62 L 527.58 229.51 L 528.84 224.48 L 526.96 220.3 L 529.11 215.63 L 527.55 210.33 L 521.56 210.36 L 520.96 213.75 L 513.48 221.59 L 513.11 226.7 L 505.08 227.62 L 504.72 234.55 L 476.07 245.86 L 466.58 246.78 L 466.4 241.85 L 451.26 241.85 L 436.29 236.74 L 431.58 258.93 L 435.51 260.48 L 500.74 261.76 L 505.71 264.72 L 515.84 265.37 L 528.2 286.94 L 533 290.4 L 542.68 295.43 L 557.13 298.91 L 574.14 299.63 L 567.27 287.55 L 566.17 279.22 L 571.85 272.63 L 570.84 264.49 L 574.78 257.9 L 577.8 248.47 L 578.44 244.63 Z M 574.14 299.63 L 557.13 298.91 L 542.68 295.43 L 533 290.4 L 528.2 286.94 L 515.84 265.37 L 505.71 264.72 L 500.74 261.76 L 435.51 260.48 L 431.58 258.93 L 430.22 270.7 L 418.54 293.87 L 395.36 310.11 L 367.45 321.61 L 354.21 339.76 L 490.19 340.55 L 491.33 347.18 L 494.06 348.63 L 501.18 349 L 505.56 345.35 L 555.92 343.16 L 588.22 331.48 L 608.47 326.92 L 624.19 327.45 L 618.89 314.18 L 607.63 300.36 L 598.2 295.69 L 575.87 299.72 L 574.14 299.63 Z M 624.19 327.45 L 608.47 326.92 L 588.22 331.48 L 555.92 343.16 L 505.56 345.35 L 501.18 349 L 494.06 348.63 L 491.33 347.18 L 490.19 340.55 L 490.61 350.13 L 497.04 363 L 506.51 372.95 L 518.65 379.17 L 524.43 386.26 L 533.22 403.66 L 541.32 397.9 L 573.62 391.33 L 591.14 396.81 L 621.61 367.43 L 625.47 368.08 L 630.23 357.83 L 630.87 353.62 L 626.94 335.5 L 624.19 327.45 Z M 625.47 368.08 L 621.61 367.43 L 591.14 396.81 L 573.62 391.33 L 541.32 397.9 L 533.22 403.66 L 543.81 416.31 L 548.1 419.49 L 575.68 454.57 L 590.28 448.94 L 599.4 456.19 L 633.89 410.63 L 633.53 398.1 L 625.11 371.65 L 625.47 368.08 Z M 678.82 519.86 L 678.73 503.11 L 671.69 496.01 L 671.05 491.26 L 675.99 479.82 L 685.14 467.65 L 685.32 463.99 L 670.41 429.85 L 661.99 433.42 L 643.5 414.75 L 637.55 410.82 L 633.89 410.63 L 599.4 456.19 L 590.28 448.94 L 575.68 454.57 L 587.32 465.58 L 592.38 467.78 L 599.76 467.78 L 624.98 457.39 L 629.84 461.77 L 629.97 466.07 L 627.85 471.68 L 644.65 471.65 L 645.24 484.91 L 635.1 500.99 L 617.9 512.87 L 612.88 514.5 L 616.16 523.46 L 623.75 529.2 L 626.28 519.8 L 678.82 519.86 Z M 612.88 514.5 L 617.9 512.87 L 635.1 500.99 L 645.24 484.91 L 644.65 471.65 L 627.85 471.68 L 625.74 482.2 L 609.6 495.36 L 609.33 501.17 L 612.2 507.6 L 612.88 514.5 Z M 519.94 764 L 534.47 764 L 537.82 754.49 L 544.84 747.73 L 547.28 750.6 L 542.43 757.81 L 540.09 764 L 675.06 764 L 678.82 519.86 L 626.28 519.8 L 623.75 529.2 L 627.07 531.65 L 625.43 536.6 L 519.94 764 Z M 713.74 416.74 L 714.03 417.87 L 714.11 413.4 L 712.39 412.24 L 711.78 413.3 L 713.64 416.43 L 713.74 416.74 Z M 791.95 569.59 L 793.1 570.36 L 791.41 568.57 L 791.8 569.59 L 791.95 569.59 Z M 705.71 379.29 L 705.68 380.17 L 706.03 378.9 L 705.71 379.29 Z M 715.71 357.82 L 711.81 355.2 L 708.7 356.19 L 713.02 358.49 L 716.01 361.97 L 717.01 361.47 L 715.98 358.25 L 715.71 357.82 Z M 712.63 379.75 L 712.51 381.57 L 713.22 380.54 L 712.63 379.75 Z M 711.05 381.97 L 711.87 381.73 L 708.18 375.48 L 707.34 377.33 L 710.91 381.9 L 711.05 381.97 Z M 890.84 745.37 L 893.03 745.64 L 891.78 743.36 L 890.89 745.08 L 890.84 745.37 Z M 831.02 698.47 L 830.67 697.32 L 829.52 697.99 L 830.86 698.43 L 831.02 698.47 Z M 861.08 647.96 L 862.81 647.16 L 860.95 645.8 L 860.8 647.87 L 861.08 647.96 Z M 831.85 700.68 L 832.73 699.36 L 831.35 697.75 L 831.78 700.65 L 831.85 700.68 Z M 675.06 764 L 907.42 764 L 908.36 760.21 L 901.94 754.98 L 900.09 751.6 L 896.76 752.19 L 887.01 742.88 L 878.28 738.38 L 876.42 732.73 L 869.13 728.27 L 865.72 719.56 L 860.46 715.92 L 851.19 714.99 L 846.28 713.05 L 844.63 714.18 L 844.1 712.45 L 842.96 713.82 L 843.51 712.62 L 841.45 712.28 L 838.26 708.95 L 834.42 702.67 L 834.47 704.09 L 832.87 703.18 L 833.24 701.41 L 834.14 702.38 L 833.42 700.27 L 831.98 700.69 L 832.23 702.61 L 827.23 695.23 L 826.07 695.46 L 825.45 686.59 L 819.65 676 L 818.34 664.39 L 813.63 654.73 L 815.37 648.63 L 814.13 648.71 L 815.05 648.01 L 814.06 644.32 L 815.56 645.29 L 815.73 641.73 L 813.88 636.35 L 815.06 635.63 L 815.51 636.53 L 815.74 634.96 L 813.11 634.37 L 814.12 628.04 L 813.12 623.47 L 815.83 620.03 L 818.82 621.45 L 815.58 623.81 L 819 621.6 L 820.83 623.43 L 827.71 625.05 L 831.8 622.91 L 834.07 626.14 L 834.56 625.11 L 829.7 619.04 L 821.67 617.24 L 820.82 612.62 L 818.64 610.44 L 815.11 608.17 L 814.28 608.39 L 815.73 610.09 L 814.61 610.46 L 805.32 595.07 L 802.76 591.91 L 797.2 589.02 L 794.2 583.72 L 790.62 580.71 L 791.16 577.65 L 792.53 576.86 L 790.08 573.53 L 788.93 573.58 L 788.72 569.55 L 787.19 568.54 L 786.16 562.93 L 780.96 557.27 L 780.52 552.53 L 777.14 547.74 L 777.71 545.01 L 764.78 522.52 L 759.72 508.79 L 756.47 505.43 L 757.42 505.07 L 757.06 502.19 L 753.75 498.74 L 750.67 489.41 L 742.07 480.45 L 740.96 475.15 L 737.39 471.48 L 733.6 461.85 L 730.81 458.9 L 726.7 446.63 L 721.6 439.72 L 715.61 424.9 L 710.08 420.53 L 710.46 415.15 L 711.76 414.37 L 710.17 412.04 L 710.61 408.48 L 712.14 405.96 L 714.27 407.57 L 714.14 403.1 L 711.88 403.3 L 707.62 396.13 L 708.42 395.14 L 706.6 392.81 L 708.12 392.26 L 707.63 391.07 L 703.02 387.86 L 702.81 382.25 L 704.48 380.51 L 704.27 376.95 L 693.99 370.46 L 692.83 364.2 L 689.97 361.32 L 688.98 358.18 L 684.88 356.01 L 684.85 351.27 L 680.54 347.19 L 682.64 344.39 L 685.05 346.03 L 684.82 344.49 L 687.2 346.56 L 683.43 342.4 L 684.61 338.17 L 682.21 339.02 L 678.84 334.58 L 680.05 332.46 L 684.72 333.99 L 685.7 336.14 L 686.82 335.68 L 686.55 331.65 L 683.01 325.42 L 679.43 320.79 L 675.24 317.6 L 672.55 317.66 L 670.16 316 L 669.96 313.7 L 666.08 309.61 L 663.66 309.06 L 663.64 307.14 L 655.81 297.93 L 654.7 292.96 L 651.21 290.16 L 648.82 284.81 L 642.66 278.08 L 638.4 276.44 L 634.49 261.22 L 630.5 258.72 L 626.46 253.74 L 624.85 248.86 L 622.07 245.41 L 622.15 239.66 L 625.01 236.22 L 624.19 234.12 L 619.04 233.31 L 615.03 234.15 L 611.15 236.54 L 588.44 243.92 L 578.44 244.63 L 574.78 257.9 L 570.84 264.49 L 571.85 272.63 L 566.17 279.22 L 567.27 287.55 L 574.14 299.63 L 598.2 295.69 L 607.63 300.36 L 618.89 314.18 L 626.94 335.5 L 630.87 353.62 L 625.11 371.65 L 633.53 398.1 L 633.89 410.63 L 637.55 410.82 L 643.5 414.75 L 661.99 433.42 L 670.41 429.85 L 685.32 463.99 L 685.14 467.65 L 675.99 479.82 L 671.05 491.26 L 671.69 496.01 L 678.73 503.11 L 678.82 519.86 L 675.06 764 Z M 692.45 347.94 L 692.62 347.97 L 692.88 347.65 L 692.72 347.36 L 692.31 346.93 L 691.86 346.91 L 692.45 347.94 Z M 697.64 351.74 L 699.56 352.56 L 698.6 353.33 L 700.14 354.55 L 699.39 353.35 L 701.17 351.89 L 699.48 350.88 L 698.8 348.34 L 697.41 351.75 L 697.64 351.74 Z M 689.21 345.18 L 690.2 346.45 L 689.29 344.34 L 689.21 345.18 Z M 700.45 344.69 L 701.52 344.16 L 700.51 344.28 L 700.45 344.69 Z M 693.04 341.63 L 692.21 341.71 L 693.74 344.09 L 693.25 341.63 L 693.04 341.63 Z M 688.34 337.72 L 686.96 336.46 L 687.49 338.42 L 688.06 337.78 L 688.34 337.72 Z M 701.57 348.97 L 702.02 346.78 L 700.6 345.5 L 699.91 346.57 L 701.36 348.98 L 701.57 348.97 Z M 694.14 344.32 L 694.61 346.56 L 696.91 344.69 L 696.78 342.33 L 694.56 344.32 L 694.14 344.32 Z M 623.75 529.2 L 616.16 523.46 L 612.88 514.5 L 612.2 507.6 L 609.33 501.17 L 609.6 495.36 L 625.74 482.2 L 629.97 466.07 L 629.84 461.77 L 624.98 457.39 L 599.76 467.78 L 592.38 467.78 L 587.32 465.58 L 575.68 454.57 L 548.1 419.49 L 535.17 406.7 L 524.43 386.26 L 518.65 379.17 L 506.51 372.95 L 497.04 363 L 490.61 350.13 L 490.19 340.55 L 111.31 339.11 L 111.29 764 L 519.94 764 L 627.07 531.65 L 623.75 529.2 Z" fill="#7b5c3d" fill-opacity="0.78" stroke="none" />
    </g>
    <g id="suez-region">
      <path id="suez-shape" d="M 601.26 120.95 L 601.09 123.73 L 603.04 126.86 L 602.48 120.97 L 601.26 120.95 Z M 603.51 129.3 L 604.15 132.09 L 603.88 129.26 L 603.51 129.3 Z M 603.09 126.99 L 603.81 129.2 L 603.46 126.9 L 603.09 126.99 Z M 593.15 99.02 L 592.88 119.1 L 589.17 125.14 L 585.97 125.96 L 583.01 124.45 L 563.56 124.09 L 563.34 125.8 L 566.57 129.12 L 567.66 136.53 L 571.75 149.05 L 600.81 147.9 L 607.37 151.13 L 611.07 150.84 L 615.24 147.68 L 611.25 146.39 L 611.95 148.13 L 609.28 148.38 L 607.62 145.28 L 603.53 144.59 L 600.6 140.26 L 601.21 135.66 L 604.28 134.87 L 602.73 126.75 L 598.41 121.37 L 600.91 121.2 L 603.31 112.25 L 601.42 105.71 L 601.43 99.08 L 599.53 99.33 L 593.15 99.02 Z M 620.18 93.2 L 616.47 91.84 L 606.15 98.46 L 601.66 99.05 L 604.17 112.71 L 602.7 121.42 L 604.86 134.74 L 609.86 139.62 L 611.34 145.28 L 616.47 146.86 L 632.76 146.92 L 630.59 138.96 L 622.55 126.96 L 620.78 100.37 L 620.18 93.2 Z M 603.26 113.75 L 601.34 120.88 L 602.48 120.81 L 603.85 113.91 L 603.26 113.75 Z M 603.48 111.02 L 603.76 113.77 L 603.85 111.9 L 603.48 111.02 Z M 601.69 104.61 L 601.64 105.76 L 602.11 108.47 L 602.43 109.33 L 603.1 110.4 L 601.69 104.61 Z M 624.19 234.12 L 618.86 215.14 L 606.01 203.49 L 603.35 198.36 L 605.3 194.34 L 603.77 193.44 L 605.19 193.84 L 604.68 191.38 L 614.53 177.63 L 612.49 177.5 L 611.17 175.24 L 612.31 171.74 L 615.55 170.32 L 616.56 171.44 L 615.75 170.39 L 617.8 169.98 L 618.06 171.97 L 619.5 169.68 L 617.9 151.42 L 616.26 151.6 L 615.24 147.68 L 611.07 150.84 L 607.37 151.13 L 600.81 147.9 L 571.75 149.05 L 574.27 167.49 L 574.09 186.28 L 569.95 243.01 L 578.44 244.63 L 588.44 243.92 L 611.15 236.54 L 615.03 234.15 L 619.04 233.31 L 622.54 234.28 L 624.19 234.12 Z M 632.76 146.92 L 616.47 146.86 L 618.82 150.49 L 619.78 168.32 L 619.42 171.03 L 617.85 172.5 L 622.83 176.95 L 621.18 180.6 L 622.74 181.74 L 636.19 172.76 L 634.27 167.23 L 634.43 151.91 L 632.76 146.92 Z M 600.94 74 L 601.12 80.15 L 602.64 74.1 L 600.94 74 Z M 619.1 83.91 L 614.22 79.39 L 612.7 80.23 L 612.52 78.85 L 614.12 79.25 L 611.53 76.03 L 604.49 71.27 L 601.16 81.64 L 601.66 99.05 L 606.15 98.46 L 616.47 91.84 L 620.18 93.2 L 618.81 84.94 L 619.1 83.91 Z M 601.43 99.08 L 600.45 69.11 L 603.35 65.57 L 601.83 67.67 L 593.94 66.16 L 582.62 84.19 L 587.49 87.5 L 593.04 86.95 L 595.49 94.61 L 593.15 99.02 L 599.53 99.33 L 601.43 99.08 Z M 603.81 70.83 L 603.25 73.54 L 604.12 70.8 L 603.81 70.83 Z M 602.44 67.49 L 601.02 69.7 L 601.09 73.84 L 602.72 73.88 L 603.46 70.81 L 602.21 68.63 L 602.44 67.49 Z" fill="#c18d5b" fill-opacity="0.78" stroke="none" />
    </g>
    <g id="sinai-region">
      <path id="sinai-shape" d="M 619.1 83.91 L 622.55 126.96 L 630.59 138.96 L 632.52 145.03 L 634.43 151.91 L 634.27 167.23 L 636.19 172.76 L 679.43 176.6 L 695.76 179.74 L 736.81 198.22 L 745.93 201.23 L 760.71 202.77 L 773.1 200.89 L 773.38 193.96 L 770.94 183.89 L 755.53 138.29 L 750.76 134.8 L 751.5 128.2 L 748.94 125.42 L 749.17 120 L 747.66 113.96 L 741.43 100.12 L 729.06 63.71 L 713.67 73.53 L 692.92 79.77 L 681.22 79.57 L 673.73 74.79 L 665.71 72.24 L 678.93 78.06 L 679.9 79.06 L 679.08 78.84 L 678.18 82.87 L 672.12 80.33 L 656.79 85.79 L 657.32 82.86 L 655.57 80.64 L 653.74 80.47 L 655.17 80.15 L 653.95 79.22 L 655.12 77.9 L 657.47 79.6 L 653.59 74.87 L 649.16 77.21 L 646.7 80.83 L 644.38 81.23 L 648.94 82.18 L 649.37 80.3 L 651.63 79.61 L 651.06 81.94 L 648.2 82.84 L 649.17 84.04 L 647.92 85.19 L 644.68 84.57 L 646.3 82.35 L 643.54 81.41 L 642.91 82.5 L 638.64 81.98 L 633.25 85.6 L 630.25 85.58 L 628.91 86.81 L 627.31 86.54 L 628.38 86.15 L 627.96 85.08 L 625.33 85.36 L 642.43 78.49 L 642.19 77.34 L 631.2 83.33 L 621.02 84.57 L 619.1 83.91 Z M 643.14 78.08 L 654.86 71.4 L 665.56 72 L 654.2 71.26 L 642.8 78.23 L 643.14 78.08 Z M 749.46 322.58 L 748.07 320.66 L 751.41 320.16 L 748.99 318.99 L 747.53 320.02 L 748.09 324.26 L 751.56 326.79 L 756.1 326.01 L 753.89 324.1 L 753.88 322.43 L 750.14 322.8 L 749.46 322.58 Z M 761.03 325.88 L 761.78 327.42 L 763.98 326.02 L 762.01 323.31 L 758.55 324.1 L 758.28 325.98 L 759.61 324.39 L 761.15 325.54 L 761.03 325.88 Z M 636.19 172.76 L 622.74 181.74 L 627.05 187.79 L 625.87 197.78 L 628.01 198.91 L 629.05 201.56 L 628.6 204.85 L 629.72 206.21 L 628.45 209.47 L 629.43 209.47 L 629.61 207.11 L 630.23 209.58 L 635.24 212.85 L 636.02 219.66 L 638.6 221.6 L 639.65 225.88 L 644.12 228.25 L 652.6 237.28 L 653.94 240.19 L 659.53 243.8 L 659.13 255.42 L 662.87 261.53 L 660.67 269.01 L 663.58 277.83 L 664.42 278.26 L 663.1 276.01 L 664.65 275.82 L 665.54 278.22 L 664.74 278.8 L 671.81 285.48 L 674.5 290.48 L 685.4 297.78 L 687.13 301.53 L 689.14 302.79 L 689.49 306.37 L 692.06 307.69 L 694.88 314.71 L 698.31 316.4 L 698.55 318.76 L 706.33 325.34 L 708.61 324.89 L 711.21 328.69 L 713.44 328.9 L 720.56 336.25 L 726.93 336.44 L 731.22 340.99 L 731.53 337.84 L 729.37 338.1 L 728.16 336.1 L 731.67 336.12 L 732.68 331.18 L 734.13 330.53 L 735.61 331.58 L 736.39 326.77 L 738.95 326.46 L 743.37 321.1 L 744.04 318.02 L 743.04 313.78 L 744.52 306.97 L 741.91 302.35 L 741.85 295.74 L 743.99 292.77 L 746.1 285.05 L 748.71 283.75 L 749.18 278 L 756.41 264.43 L 756 256.37 L 757.84 254.16 L 757.24 247.65 L 760.43 245.03 L 758.88 240.35 L 760.7 231.57 L 763.88 227.78 L 764.15 219.83 L 766.55 217.71 L 771.96 207.56 L 774.89 206.14 L 773.1 200.89 L 760.71 202.77 L 745.93 201.23 L 736.81 198.22 L 695.76 179.74 L 679.43 176.6 L 658.02 174.44 L 636.19 172.76 Z" fill="#70513a" fill-opacity="0.78" stroke="none" />
    </g>
  </g>

</svg>
